<svg width="113" height="20" viewBox="0 0 113 20" fill="none" xmlns="http://www.w3.org/2000/svg">
<g clip-path="url(#clip0_128_2)">
<mask id="mask0_128_2" style="mask-type:luminance" maskUnits="userSpaceOnUse" x="0" y="0" width="113" height="20">
<path d="M113 0H0V20H113V0Z" fill="white"/>
</mask>
<g mask="url(#mask0_128_2)">
<path fill-rule="evenodd" clip-rule="evenodd" d="M11.498 2.41489C11.498 3.50289 12.371 4.38789 13.443 4.38789C14.515 4.38789 15.387 3.50289 15.387 2.41489C15.387 1.32689 14.515 0.441895 13.443 0.441895C12.371 0.441895 11.498 1.32689 11.498 2.41489ZM34.566 10.1699C34.566 9.55289 35.056 9.04989 35.656 9.04989H38.406C39.006 9.04989 39.496 9.55289 39.496 10.1699V11.2149H34.566V10.1699ZM30.775 14.9899C30.775 17.7519 32.965 19.9999 35.657 19.9999H42.317L43.234 16.1089H35.657C35.055 16.1089 34.566 15.6059 34.566 14.9889V14.4319H43.287V10.5999C43.287 7.83689 41.097 5.58889 38.405 5.58889H35.657C32.965 5.58889 30.775 7.83689 30.775 10.5999V14.9899ZM15.218 19.9999H11.498V5.93189H15.218V19.9999ZM21.362 19.9999L16.571 5.93189H20.463L23.503 14.8599L26.544 5.93189H30.436L25.646 19.9999H21.362ZM72.95 10.5999C72.95 9.98289 73.439 9.47989 74.04 9.47989H76.789C77.391 9.47989 77.879 9.98289 77.879 10.5999V14.9899C77.879 15.6069 77.39 16.1089 76.789 16.1089H74.04C73.439 16.1089 72.95 15.6059 72.95 14.9889V10.5999ZM69.158 14.9899C69.158 17.7519 71.348 19.9999 74.04 19.9999H76.789C79.481 19.9999 81.671 17.7519 81.671 14.9899V10.5999C81.671 7.83689 79.481 5.58889 76.789 5.58889H74.04C71.348 5.58889 69.158 7.83689 69.158 10.5989V14.9899ZM62.401 19.9999C59.693 19.9999 57.491 17.7789 57.491 15.0489V10.7119C57.491 7.98189 59.693 5.76089 62.401 5.76089H67.975L67.052 9.60489H62.401C61.796 9.60489 61.303 10.1019 61.303 10.7119V15.0489C61.303 15.6589 61.796 16.1549 62.401 16.1549H67.975L67.052 19.9999H62.401ZM83.193 10.7119V19.9999H86.946V10.7119C86.946 10.1019 87.43 9.60489 88.026 9.60489H90.909L91.816 5.76089H88.026C85.361 5.76089 83.193 7.98089 83.193 10.7119ZM97.206 9.05089C96.604 9.05089 96.115 9.55289 96.115 10.1709V11.2149H101.045V10.1699C101.045 9.55289 100.556 9.04989 99.955 9.04989L97.206 9.05089ZM97.206 19.9999C94.514 19.9999 92.324 17.7519 92.324 14.9899V10.5999C92.324 7.83689 94.514 5.58889 97.206 5.58889H99.954C102.646 5.58889 104.836 7.83689 104.836 10.5999V14.4319H96.115V14.9889C96.115 15.6059 96.605 16.1089 97.206 16.1089H104.726L103.809 19.9999H97.206ZM4.877 19.9999C2.187 19.9999 0 17.7819 0 15.0549V1.47189H3.787V15.0549C3.787 15.6649 4.277 16.1599 4.877 16.1599H9.977L9.06 19.9999H4.877ZM45.055 16.1679L44.133 19.9999H51.4C54.106 19.9999 56.307 17.7869 56.307 15.0659V13.5779C56.307 11.0079 54.313 8.84789 51.767 8.65789L49.374 8.45389L48.963 8.41889C48.6878 8.39467 48.4317 8.26834 48.245 8.06478C48.0582 7.86121 47.9544 7.59513 47.954 7.31889V6.40589C47.954 5.79789 48.446 5.30289 49.051 5.30289H54.491L55.412 1.47189H49.051C46.344 1.47189 44.143 3.68489 44.143 6.40589V7.31889C44.143 9.87889 46.129 12.0389 48.665 12.2389L50.665 12.4089L51.475 12.4779C52.048 12.5169 52.496 12.9999 52.496 13.5779V15.0659C52.4965 15.3573 52.3814 15.637 52.1759 15.8436C51.9705 16.0502 51.6914 16.1668 51.4 16.1679H45.055ZM106.934 9.19189V6.22689H105.937V5.58989H108.643V6.22789H107.652V9.19289L106.934 9.19189ZM110.978 8.06989H110.535L109.84 6.88589V9.19189H109.15V5.58889H109.84L110.766 7.17889L111.693 5.58889H112.363V9.19189H111.673V6.88589L110.978 8.06989Z" fill="url(#paint0_linear_128_2)"/>
</g>
</g>
<defs>
<linearGradient id="paint0_linear_128_2" x1="109" y1="-1.5" x2="1" y2="15.5" gradientUnits="userSpaceOnUse">
<stop stop-color="#D2122E"/>
<stop offset="1" stop-color="#990000"/>
</linearGradient>
<clipPath id="clip0_128_2">
<rect width="113" height="20" fill="white"/>
</clipPath>
</defs>
</svg>
